<?xml version="1.0" standalone="no"?>
<!DOCTYPE svg PUBLIC "-//W3C//DTD SVG 20010904//EN"
 "http://www.w3.org/TR/2001/REC-SVG-20010904/DTD/svg10.dtd">
<svg version="1.0" xmlns="http://www.w3.org/2000/svg"
 width="1810.000000pt" height="1673.000000pt" viewBox="0 0 1810.000000 1673.000000"
 preserveAspectRatio="xMidYMid meet">

<g transform="translate(0.000000,1673.000000) scale(0.100000,-0.100000)"
fill="#ffffff" stroke="none" >
<path  d="M9491 16450 l-222 -250 -274 0 -274 0 -165 -71 -165 -72 -5 -36 c-3
-20 -20 -180 -37 -355 l-31 -319 -454 -667 -454 -666 -278 -109 c-152 -59
-379 -148 -504 -197 l-227 -89 -223 -322 -223 -322 -110 -239 -110 -239 -184
-91 -184 -91 -119 -258 c-100 -219 -131 -277 -205 -380 -47 -67 -87 -123 -88
-125 -1 -1 -136 -13 -301 -27 -164 -14 -447 -39 -629 -56 l-330 -30 -319 -85
-319 -84 -41 37 c-22 20 -89 82 -148 137 l-107 101 -48 214 -49 213 -183 79
-183 79 -367 -192 -368 -193 -114 -194 c-63 -107 -172 -294 -244 -417 l-130
-223 -405 -278 -405 -278 -127 -255 -127 -255 0 -256 -1 -255 212 -180 c117
-98 222 -187 235 -197 31 -25 504 -140 681 -166 79 -12 145 -21 148 -21 2 0 4
-168 4 -374 l0 -375 -135 -128 c-74 -70 -135 -135 -135 -143 0 -8 54 -189 118
-401 l118 -387 119 -125 119 -125 61 -6 c33 -3 137 -8 230 -12 164 -6 174 -5
273 21 57 15 105 25 107 23 2 -2 16 -163 31 -358 l27 -355 162 -212 162 -211
12 -254 12 -253 84 -175 c46 -96 140 -290 208 -430 l125 -255 159 -103 c88
-56 163 -102 166 -102 2 0 54 38 113 85 l109 85 388 0 388 0 84 -80 c47 -44
95 -82 108 -84 12 -3 70 -7 128 -10 92 -4 123 -1 227 23 l120 28 79 -50 78
-50 131 6 132 5 5 -26 c3 -15 9 -56 13 -92 3 -36 13 -76 20 -90 8 -14 89 -103
181 -197 l168 -173 70 90 c39 49 75 89 82 89 7 1 65 -22 130 -50 l118 -51 185
-184 186 -185 144 3 145 3 35 152 c19 83 37 154 40 156 3 2 31 7 62 11 l58 6
46 -92 c33 -69 59 -105 97 -139 l52 -47 -109 -143 c-60 -79 -109 -148 -109
-154 0 -5 33 -64 73 -130 72 -117 74 -123 99 -251 l26 -131 135 38 c125 36
141 38 222 32 l86 -6 9 -46 c9 -44 7 -51 -56 -178 l-66 -133 67 -134 c65 -131
69 -136 130 -177 35 -23 65 -44 67 -46 2 -1 11 -47 20 -101 l16 -97 114 -20
c74 -13 117 -26 122 -35 4 -8 15 -66 23 -127 l16 -113 -47 -75 c-25 -41 -44
-77 -42 -79 2 -2 51 -34 109 -73 102 -68 108 -70 210 -87 58 -9 133 -22 168
-27 l63 -11 42 -85 42 -84 424 -346 423 -345 107 21 c58 12 203 56 321 98 203
72 221 81 322 152 l108 76 0 131 0 131 -134 42 -133 41 -7 38 c-3 20 -6 55 -6
77 l0 40 344 179 344 178 70 147 71 146 16 235 c12 184 23 269 49 393 l34 158
-88 242 -88 242 -73 26 -74 26 -13 118 -13 118 47 70 47 71 -7 130 c-4 72 -13
187 -21 255 l-13 124 30 38 30 38 48 -52 c26 -29 59 -66 74 -84 l26 -31 103
32 102 32 3 173 2 173 -108 -7 -109 -7 -21 62 c-19 56 -20 65 -7 96 8 19 18
34 22 34 4 0 48 -23 97 -50 49 -28 93 -50 98 -50 6 0 68 21 139 46 l129 47 70
132 c51 98 76 134 92 139 13 3 67 6 121 6 l97 0 0 -98 0 -98 90 -74 c49 -41
90 -75 90 -78 0 -6 -52 -92 -56 -92 -2 0 -79 34 -171 75 -123 54 -169 70 -171
60 -3 -15 56 -436 62 -442 2 -2 68 -15 147 -28 132 -23 170 -25 464 -25 254 0
325 3 340 14 11 7 57 36 102 64 l81 51 75 -123 c61 -101 78 -137 91 -199 8
-42 32 -108 51 -147 28 -55 35 -81 33 -113 -3 -38 -5 -42 -38 -48 -144 -29
-148 -30 -220 -84 -40 -30 -75 -56 -77 -59 -3 -2 19 -76 48 -164 l52 -160 -29
-118 c-22 -95 -29 -151 -34 -279 l-5 -160 -100 -11 c-88 -11 -121 -9 -285 10
l-185 23 -105 -95 c-58 -52 -106 -98 -108 -102 -2 -5 104 -95 235 -200 131
-106 245 -199 253 -206 13 -11 26 0 90 78 41 50 83 96 95 103 11 7 94 27 184
45 l163 34 177 160 c173 157 180 165 282 318 94 143 110 161 162 193 32 19 62
35 67 35 5 0 23 -20 41 -45 l32 -45 88 85 c49 47 93 85 98 85 5 0 32 -27 61
-60 l52 -60 123 0 123 0 45 -60 45 -61 93 81 c97 84 111 93 166 103 31 6 34 3
122 -115 l91 -121 110 -58 110 -58 92 96 c51 52 92 101 90 107 -2 6 -43 98
-93 205 -49 107 -89 202 -89 213 0 18 86 327 93 334 1 2 37 -17 79 -42 l77
-45 78 21 c43 12 82 26 87 30 4 4 23 69 40 144 l33 135 -155 178 c-291 335
-272 309 -272 352 0 37 2 39 53 57 l52 19 5 149 5 149 385 117 c310 95 410
130 515 180 72 34 131 63 133 65 2 1 -14 72 -35 156 l-39 154 13 115 c21 199
24 186 -53 220 -36 17 -69 30 -74 30 -4 0 -45 -49 -91 -109 l-84 -108 -219
-52 c-121 -28 -295 -64 -386 -78 l-167 -26 -339 263 c-186 145 -340 264 -341
264 -1 1 -13 69 -28 153 l-26 151 94 168 95 168 187 81 187 80 91 112 92 112
487 356 487 355 233 69 233 69 530 282 c427 228 766 411 782 425 3 1 -11 128
-22 208 l-5 37 43 0 c24 0 85 3 135 6 l92 7 0 112 0 113 -67 54 c-38 30 -73
57 -80 61 -6 4 -65 -11 -130 -34 -89 -31 -124 -49 -144 -71 l-25 -30 -244 46
c-323 61 -335 60 -597 -37 l-192 -72 -42 -80 c-23 -44 -43 -82 -45 -83 -1 -2
-21 -1 -43 3 l-41 7 0 86 c0 48 4 92 8 98 4 6 46 34 93 63 65 39 119 62 215
91 95 28 152 52 216 90 49 29 88 56 88 60 0 4 -24 29 -52 56 -29 26 -94 87
-145 134 l-92 86 54 82 55 81 0 140 0 139 -197 125 -198 124 -81 267 -82 266
-7 261 c-5 186 -11 259 -19 256 -6 -3 -57 -24 -114 -48 l-103 -42 -92 43 c-89
42 -95 43 -182 41 -49 -2 -94 -6 -98 -10 -4 -5 -15 -52 -23 -106 -8 -55 -16
-100 -17 -102 -6 -5 -198 -73 -207 -73 -5 0 -19 19 -31 42 l-21 42 46 95 45
96 46 343 45 343 -107 102 c-58 56 -110 101 -116 99 -5 -2 -135 -93 -289 -203
-153 -109 -282 -200 -286 -202 -4 -1 -45 39 -92 88 -46 50 -114 122 -152 161
l-68 72 -95 -35 -95 -35 0 -104 0 -104 -130 65 c-89 45 -132 61 -134 53 -2 -7
-14 -141 -26 -298 -11 -157 -23 -302 -26 -324 l-6 -38 -45 51 -45 51 -83 -6
-83 -7 -33 61 c-34 62 -34 62 -126 98 l-93 36 0 58 0 59 43 19 43 19 33 149
c19 82 37 156 42 165 5 10 40 22 93 34 l86 17 40 71 c22 38 39 73 38 77 -2 4
-257 233 -568 509 -311 277 -579 517 -595 534 -30 32 -31 34 -54 257 l-24 225
27 118 26 117 -111 178 -111 177 -24 159 c-12 87 -27 162 -33 165 -6 4 -140
24 -298 44 l-288 38 -120 92 c-66 50 -183 140 -260 199 l-140 108 -3 -76 -3
-77 -131 5 c-91 3 -145 1 -174 -8 -50 -15 -45 -20 -104 92 -33 61 -52 86 -82
102 -21 13 -38 26 -37 30 0 4 27 29 60 57 l59 50 0 148 0 148 85 158 c47 87
85 161 85 164 0 4 -53 7 -119 7 l-118 0 -6 48 c-3 26 -11 115 -18 198 l-12
151 -346 42 c-190 23 -389 47 -441 53 -87 10 -104 15 -195 65 -55 31 -101 56
-103 58 -2 1 2 138 9 304 6 166 9 304 7 306 -2 3 -104 -108 -227 -245z m138
-191 l-4 -221 123 -69 124 -69 416 -51 c230 -28 420 -53 423 -57 3 -4 13 -92
22 -195 9 -104 18 -192 21 -195 4 -3 44 -8 91 -10 47 -3 85 -7 85 -9 0 -2 -27
-55 -60 -117 l-60 -113 0 -136 0 -136 -84 -73 c-46 -40 -85 -76 -85 -79 -1 -4
33 -28 74 -54 71 -44 78 -51 125 -138 74 -139 63 -130 140 -107 56 17 84 19
200 14 74 -3 147 -7 163 -9 24 -4 27 -1 27 23 0 60 11 55 219 -105 l203 -155
276 -37 c246 -33 276 -39 283 -56 4 -11 15 -74 24 -140 9 -66 21 -129 27 -140
6 -11 55 -90 109 -176 l97 -155 -25 -110 -25 -109 27 -245 c15 -135 29 -249
32 -253 3 -4 253 -229 556 -499 304 -270 565 -503 580 -518 28 -26 28 -28 13
-58 -14 -27 -25 -32 -113 -53 l-97 -24 -12 -50 c-7 -27 -24 -102 -39 -166
l-26 -116 -50 -23 -50 -24 3 -109 3 -110 102 -39 103 -40 37 -70 38 -70 91 5
91 5 89 -99 c73 -82 90 -97 96 -82 6 15 58 634 58 686 0 9 6 17 13 17 6 0 68
-27 136 -60 68 -33 125 -60 127 -60 2 0 4 62 4 139 l0 138 46 13 47 13 51 -54
c28 -30 99 -105 157 -168 l106 -113 288 206 c158 113 293 206 299 206 6 0 41
-30 77 -67 l66 -68 -43 -324 -44 -324 -51 -97 -52 -97 42 -79 c23 -43 45 -85
49 -92 7 -9 46 1 168 44 87 31 160 57 161 58 1 1 7 35 13 76 18 124 14 117 69
124 46 6 58 3 150 -44 l101 -50 76 30 c42 17 79 28 82 26 3 -3 8 -99 12 -213
l7 -208 86 -279 c47 -154 91 -283 99 -287 7 -4 94 -59 193 -122 l180 -113 3
-100 2 -99 -70 -105 -70 -105 130 -123 c72 -68 130 -127 130 -131 0 -17 -101
-60 -210 -91 -93 -27 -137 -46 -232 -103 l-116 -70 -6 -106 c-4 -58 -8 -125
-10 -148 -2 -24 -3 -43 -2 -43 0 0 48 -9 106 -20 58 -11 106 -20 107 -20 2 0
24 43 51 96 l48 96 165 63 c233 89 254 90 565 31 133 -25 251 -46 262 -46 11
0 34 16 50 35 23 26 53 42 121 66 l91 31 45 -33 c44 -34 44 -35 45 -95 l0 -61
-131 -6 c-73 -4 -134 -9 -137 -11 -2 -3 2 -64 10 -136 l14 -131 -60 -36 c-66
-39 -1063 -572 -1161 -620 -33 -17 -148 -56 -255 -88 -107 -31 -211 -62 -230
-69 -19 -7 -255 -173 -525 -369 l-490 -357 -90 -111 -90 -110 -185 -80 c-102
-44 -192 -88 -201 -98 -8 -10 -59 -98 -113 -195 l-98 -176 31 -177 c17 -97 34
-180 38 -184 5 -4 168 -131 363 -283 229 -178 363 -276 378 -276 60 0 361 55
579 106 l242 57 77 98 c68 88 78 97 96 88 18 -10 20 -18 14 -63 -20 -173 -19
-218 8 -326 15 -58 29 -113 32 -122 4 -14 -17 -28 -97 -68 -79 -40 -192 -79
-511 -176 -225 -68 -411 -124 -413 -124 -3 0 -5 -67 -5 -149 l0 -149 -57 -20
c-45 -15 -58 -24 -57 -38 1 -10 5 -50 9 -87 l7 -68 204 -235 205 -235 -22
-100 -22 -99 -49 -15 -48 -14 -108 64 c-59 35 -108 59 -110 54 -2 -4 -32 -110
-67 -234 l-63 -225 89 -194 c49 -107 89 -198 89 -203 0 -5 -24 -33 -54 -62
l-54 -54 -74 40 c-68 36 -80 48 -171 168 -54 72 -105 131 -113 133 -8 2 -46
-4 -86 -13 -62 -14 -80 -24 -140 -75 -38 -33 -73 -60 -77 -60 -5 0 -21 18 -36
40 l-28 40 -126 0 -126 0 -68 80 -69 81 -93 -86 -93 -86 -29 40 -29 40 -101
-60 -101 -60 -108 -162 c-104 -157 -113 -167 -274 -313 l-167 -151 -114 -22
c-258 -51 -236 -42 -309 -130 -54 -67 -67 -78 -80 -68 -52 37 -360 292 -360
298 0 4 26 30 59 58 68 59 62 58 264 32 123 -16 150 -16 255 -4 183 21 162 -1
162 171 0 133 3 163 36 313 l36 165 -46 143 c-26 79 -44 147 -39 151 72 60 92
69 206 91 l117 23 0 84 c0 78 -3 89 -39 160 -22 43 -45 106 -52 142 -14 78
-10 69 -122 253 -65 106 -95 146 -105 142 -8 -3 -65 -37 -127 -75 l-111 -70
-313 0 c-241 0 -335 4 -414 16 -56 10 -106 20 -111 25 -8 7 -46 250 -40 258 1
1 66 -25 144 -59 77 -34 142 -61 144 -59 2 2 29 51 59 109 l56 105 -100 83
-99 83 0 121 0 121 -182 -7 c-101 -3 -184 -10 -186 -14 -1 -4 -35 -68 -75
-142 l-73 -135 -103 -38 -103 -37 -120 66 c-66 37 -123 62 -127 58 -5 -5 -23
-46 -41 -91 l-33 -81 35 -99 35 -98 97 1 96 1 0 -101 0 -102 -50 -16 -51 -16
-47 51 c-26 28 -66 72 -90 97 l-42 45 -30 -35 c-17 -19 -48 -57 -69 -85 l-39
-50 14 -125 c7 -69 17 -184 20 -255 l7 -131 -47 -70 -46 -70 15 -149 c9 -83
17 -155 19 -160 2 -6 38 -21 80 -35 72 -22 76 -25 91 -64 8 -23 44 -119 78
-215 l64 -174 -33 -161 c-24 -119 -36 -219 -47 -381 l-14 -220 -65 -130 -66
-130 -343 -179 c-189 -98 -348 -182 -353 -186 -5 -5 -5 -62 0 -131 l9 -122
133 -45 132 -44 0 -82 0 -82 -82 -59 c-70 -50 -110 -69 -284 -132 -178 -64
-377 -119 -395 -108 -3 3 -185 151 -405 330 l-399 325 -47 95 c-27 52 -52 95
-56 95 -4 0 -84 13 -177 29 -168 28 -172 29 -242 75 l-71 48 34 57 35 58 -21
139 c-11 76 -23 151 -26 166 -5 25 -11 27 -123 48 l-119 22 -13 86 -14 87 -75
51 c-74 51 -76 54 -127 160 l-52 109 64 120 63 121 -18 87 c-9 48 -19 90 -22
92 -2 2 -56 8 -120 14 -112 8 -120 8 -219 -20 -57 -16 -104 -27 -105 -26 0 1
-9 45 -19 97 -16 84 -25 107 -82 198 -34 56 -63 106 -63 111 0 4 52 77 115
161 l115 153 -47 41 c-26 23 -57 49 -69 59 -12 9 -47 68 -77 130 l-54 113 -99
-3 c-152 -6 -135 10 -176 -165 l-35 -153 -98 -3 -99 -3 -176 175 -175 175
-160 71 -160 71 -25 -29 c-14 -15 -45 -52 -70 -80 l-45 -53 -137 144 -137 144
-16 124 -17 124 -158 -4 -158 -3 -79 51 -79 50 -129 -30 c-119 -27 -139 -30
-239 -23 l-109 6 -84 79 -84 79 -425 0 -426 0 -95 -75 -95 -74 -86 56 c-48 31
-108 69 -133 85 -36 21 -52 40 -68 78 -12 28 -100 210 -196 405 l-173 355 -11
207 c-19 362 2 299 -181 536 -154 200 -158 207 -164 264 -3 32 -18 209 -32
393 -14 184 -27 336 -29 338 -1 2 -65 -13 -141 -34 l-139 -37 -210 7 -209 7
-101 106 c-55 58 -103 112 -108 119 -11 19 -217 700 -217 718 0 9 59 73 131
143 l130 127 -3 417 c-2 230 -5 420 -8 422 -3 3 -84 17 -180 31 -207 30 -646
134 -684 162 -14 10 -111 91 -215 179 l-190 160 0 235 0 235 117 233 117 232
405 279 405 279 89 153 c49 85 158 271 242 415 l154 261 312 163 c172 91 325
171 339 179 25 14 34 12 176 -48 l150 -64 47 -206 46 -206 88 -83 c48 -45 125
-118 172 -161 l85 -78 330 88 330 88 315 30 c173 17 457 42 630 56 173 14 325
28 337 30 13 3 57 55 121 145 86 122 114 172 216 393 l118 253 180 86 180 85
117 251 116 252 214 308 214 308 496 193 c273 107 503 201 513 210 13 12 889
1295 922 1349 4 7 23 164 42 349 19 186 38 341 42 344 4 4 61 32 127 61 l120
53 295 5 295 5 159 178 c88 97 162 177 164 177 3 0 3 -99 1 -221z" fill="white" stroke="white" stroke-width="200" />
</g>
</svg>
